<svg width="32" height="32" viewBox="0 0 32 32" fill="none" xmlns="http://www.w3.org/2000/svg">
<path d="M19.0533 23.0533L17.3333 24.7867V17.3333C17.3333 16.9797 17.1929 16.6406 16.9428 16.3905C16.6928 16.1405 16.3536 16 16 16C15.6464 16 15.3072 16.1405 15.0572 16.3905C14.8071 16.6406 14.6667 16.9797 14.6667 17.3333V24.7867L12.9467 23.0533C12.8224 22.929 12.6748 22.8304 12.5123 22.7631C12.3499 22.6958 12.1758 22.6612 12 22.6612C11.8242 22.6612 11.6501 22.6958 11.4877 22.7631C11.3252 22.8304 11.1777 22.929 11.0533 23.0533C10.929 23.1777 10.8304 23.3252 10.7631 23.4877C10.6958 23.6501 10.6612 23.8242 10.6612 24C10.6612 24.1758 10.6958 24.3499 10.7631 24.5123C10.8304 24.6748 10.929 24.8224 11.0533 24.9467L15.0533 28.9467C15.1801 29.0681 15.3297 29.1632 15.4933 29.2267C15.6529 29.2972 15.8255 29.3336 16 29.3336C16.1745 29.3336 16.3471 29.2972 16.5067 29.2267C16.6703 29.1632 16.8199 29.0681 16.9467 28.9467L20.9467 24.9467C21.1977 24.6956 21.3388 24.3551 21.3388 24C21.3388 23.6449 21.1977 23.3044 20.9467 23.0533C20.6956 22.8023 20.3551 22.6612 20 22.6612C19.6449 22.6612 19.3044 22.8023 19.0533 23.0533V23.0533ZM24.56 8.29334C23.7453 6.42134 22.3393 4.8681 20.5574 3.87164C18.7755 2.87517 16.7161 2.49045 14.6946 2.77641C12.6732 3.06238 10.8012 4.00327 9.36568 5.4549C7.93012 6.90653 7.01012 8.78882 6.74667 10.8133C5.47545 11.1178 4.3603 11.8784 3.61299 12.9509C2.86568 14.0234 2.53825 15.333 2.69289 16.631C2.84753 17.9289 3.47347 19.1249 4.45183 19.9918C5.43019 20.8587 6.69285 21.3361 8.00001 21.3333C8.35363 21.3333 8.69277 21.1929 8.94282 20.9428C9.19286 20.6928 9.33334 20.3536 9.33334 20C9.33334 19.6464 9.19286 19.3072 8.94282 19.0572C8.69277 18.8071 8.35363 18.6667 8.00001 18.6667C7.29276 18.6667 6.61449 18.3857 6.11439 17.8856C5.61429 17.3855 5.33334 16.7072 5.33334 16C5.33334 15.2928 5.61429 14.6145 6.11439 14.1144C6.61449 13.6143 7.29276 13.3333 8.00001 13.3333C8.35363 13.3333 8.69277 13.1929 8.94282 12.9428C9.19286 12.6928 9.33334 12.3536 9.33334 12C9.33675 10.423 9.89905 8.89834 10.9204 7.69678C11.9417 6.49522 13.3559 5.6946 14.9117 5.43717C16.4675 5.17973 18.0642 5.48214 19.4181 6.29068C20.772 7.09922 21.7955 8.36152 22.3067 9.85334C22.3829 10.0825 22.5199 10.2866 22.7031 10.4439C22.8862 10.6012 23.1087 10.7059 23.3467 10.7467C24.2348 10.9145 25.0398 11.3781 25.6307 12.062C26.2216 12.746 26.5634 13.6098 26.6005 14.5129C26.6376 15.4159 26.3678 16.3049 25.8351 17.035C25.3023 17.7651 24.538 18.2932 23.6667 18.5333C23.4968 18.5771 23.3373 18.6539 23.1971 18.7593C23.0569 18.8648 22.9389 18.9968 22.8498 19.1478C22.7606 19.2989 22.7021 19.466 22.6776 19.6397C22.653 19.8134 22.6629 19.9902 22.7067 20.16C22.7504 20.3298 22.8272 20.4894 22.9327 20.6296C23.0381 20.7697 23.1701 20.8878 23.3212 20.9769C23.4722 21.066 23.6394 21.1246 23.813 21.1491C23.9867 21.1737 24.1635 21.1638 24.3333 21.12C25.7365 20.7492 26.9804 19.9307 27.876 18.7886C28.7717 17.6466 29.2701 16.2435 29.2958 14.7924C29.3214 13.3412 28.8728 11.9214 28.0181 10.7484C27.1634 9.57547 25.9492 8.71347 24.56 8.29334V8.29334Z" fill="#F5F5F5"/>
</svg>
