<svg fill="#F5F5F5" xmlns="http://www.w3.org/2000/svg"  viewBox="0 0 32 32" width="64px" height="64px"><path d="M 5 5 L 5 16 L 5 18.167969 L 5 27 L 27 27 L 27 5 L 5 5 z M 7 7 L 25 7 L 25 25 L 7 25 L 7 19 L 8.0566406 19.439453 C 8.0306406 19.624453 8 19.808 8 20 C 8 22.209 9.791 24 12 24 C 14.17 24 15.926281 22.269281 15.988281 20.113281 L 19.236328 17.976562 C 21.885328 17.851562 24 15.681 24 13 C 24 10.239 21.761 8 19 8 C 16.319 8 14.148438 10.114672 14.023438 12.763672 L 11.886719 16.011719 C 10.632719 16.047719 9.5332188 16.65975 8.8242188 17.59375 L 7 16.833984 L 7 7 z M 19 10 C 20.654 10 22 11.346 22 13 C 22 14.654 20.654 16 19 16 C 17.346 16 16 14.654 16 13 C 16 11.346 17.346 10 19 10 z M 19 11 A 2 2 0 0 0 19 15 A 2 2 0 0 0 19 11 z M 12 18 C 13.105 18 14 18.895 14 20 C 14 21.105 13.105 22 12 22 C 10.985 22 10.154391 21.240766 10.025391 20.259766 L 11.615234 20.921875 C 11.741234 20.974875 11.871 21 12 21 C 12.392 21 12.763828 20.768766 12.923828 20.384766 C 13.136828 19.874766 12.894766 19.288172 12.384766 19.076172 L 10.794922 18.414062 C 11.130922 18.158062 11.545 18 12 18 z"/></svg>